<svg width="13" height="13" viewBox="0 0 13 13" fill="none" xmlns="http://www.w3.org/2000/svg">
<path d="M11.5556 7.22222V11.5556C11.5556 11.9386 11.4034 12.306 11.1325 12.5769C10.8616 12.8478 10.4942 13 10.1111 13H1.44444C1.06135 13 0.693954 12.8478 0.423068 12.5769C0.152182 12.306 0 11.9386 0 11.5556V2.88889C0 2.5058 0.152182 2.1384 0.423068 1.86751C0.693954 1.59663 1.06135 1.44444 1.44444 1.44444H5.77778V2.88889H1.44444V11.5556H10.1111V7.22222H11.5556ZM7.22222 0V1.44444H10.5343L4.90606 7.07272L5.92728 8.09394L11.5556 2.46567V5.77778H13V0H7.22222Z" fill="#2185D0"/>
</svg>
