<svg width="41" height="41" viewBox="0 0 41 41" fill="none" xmlns="http://www.w3.org/2000/svg">
<path d="M37.5827 34.1667V37.5833H25.6243C25.6243 38.0364 25.4444 38.4709 25.124 38.7913C24.8036 39.1117 24.3691 39.2917 23.916 39.2917H17.0827C16.6296 39.2917 16.1951 39.1117 15.8747 38.7913C15.5543 38.4709 15.3743 38.0364 15.3743 37.5833H3.41602V34.1667H15.3743C15.3743 33.7136 15.5543 33.2791 15.8747 32.9587C16.1951 32.6383 16.6296 32.4583 17.0827 32.4583H18.791V29.0417H11.9577C11.0515 29.0417 10.1825 28.6817 9.54173 28.0409C8.90098 27.4002 8.54102 26.5312 8.54102 25.625V8.54167C8.54102 7.63551 8.90098 6.76647 9.54173 6.12572C10.1825 5.48497 11.0515 5.125 11.9577 5.125H29.041C29.9472 5.125 30.8162 5.48497 31.457 6.12572C32.0977 6.76647 32.4577 7.63551 32.4577 8.54167V25.625C32.4577 26.5312 32.0977 27.4002 31.457 28.0409C30.8162 28.6817 29.9472 29.0417 29.041 29.0417H22.2077V32.4583H23.916C24.3691 32.4583 24.8036 32.6383 25.124 32.9587C25.4444 33.2791 25.6243 33.7136 25.6243 34.1667H37.5827Z" fill="#2185D0"/>
<path d="M16.0276 24H13.4626V10.263H16.0276V24ZM23.5682 17.1695C24.0369 17.1695 24.4454 17.1125 24.7937 16.9985C25.1421 16.8782 25.4302 16.7103 25.6582 16.495C25.8926 16.2733 26.0667 16.0073 26.1807 15.697C26.2947 15.3803 26.3517 15.0288 26.3517 14.6425C26.3517 14.2752 26.2947 13.9427 26.1807 13.645C26.0667 13.3473 25.8957 13.094 25.6677 12.885C25.4397 12.676 25.1516 12.5177 24.8032 12.41C24.4549 12.296 24.0432 12.239 23.5682 12.239H21.6587V17.1695H23.5682ZM23.5682 10.263C24.4866 10.263 25.2814 10.3707 25.9527 10.586C26.6241 10.8013 27.1782 11.1022 27.6152 11.4885C28.0522 11.8748 28.3752 12.3372 28.5842 12.8755C28.7996 13.4138 28.9072 14.0028 28.9072 14.6425C28.9072 15.3075 28.7964 15.9187 28.5747 16.476C28.3531 17.027 28.0206 17.502 27.5772 17.901C27.1339 18.3 26.5766 18.6103 25.9052 18.832C25.2402 19.0537 24.4612 19.1645 23.5682 19.1645H21.6587V24H19.1032V10.263H23.5682Z" fill="white"/>
</svg>
