<svg width="219" height="208" viewBox="0 0 219 208" fill="none" xmlns="http://www.w3.org/2000/svg">
<path d="M187.461 1.0812C170.667 1.0812 157.005 14.7485 157.005 31.5497C157.005 33.5369 157.202 35.4785 157.567 37.359L120.923 55.6915C115.349 49.5387 107.303 45.6583 98.362 45.6583C81.567 45.6583 67.9057 59.3256 67.9057 76.1268C67.9057 92.928 81.567 106.595 98.362 106.595C100.528 106.595 102.638 106.361 104.674 105.928L122.031 131.98C116.142 137.537 112.455 145.412 112.455 154.136C112.455 155.551 112.557 156.942 112.746 158.302L60.5006 167.014C56.5286 154.808 45.0532 145.956 31.5382 145.956C14.7434 145.956 1.0812 159.623 1.0812 176.423C1.0812 193.226 14.7433 206.893 31.5382 206.893C45.9025 206.893 57.9657 196.894 61.1609 183.492L119.62 173.743C125.209 180.376 133.574 184.604 142.91 184.604C159.707 184.604 173.37 170.937 173.37 154.136C173.37 137.336 159.707 123.668 142.91 123.668C140.745 123.668 138.635 123.904 136.6 124.336L119.242 98.2827C125.132 92.7254 128.818 84.8505 128.818 76.1268C128.818 74.1397 128.622 72.1988 128.256 70.319L164.902 51.9858C170.475 58.1393 178.521 62.0196 187.461 62.0196C204.257 62.0196 217.919 48.3516 217.919 31.5497C217.919 14.7485 204.257 1.0812 187.461 1.0812ZM31.5382 190.532C23.7687 190.532 17.4454 184.203 17.4454 176.423C17.4454 168.645 23.7693 162.317 31.5382 162.317C39.3071 162.317 45.6304 168.645 45.6304 176.423C45.6304 184.203 39.307 190.532 31.5382 190.532ZM157.006 154.136C157.006 161.915 150.682 168.243 142.911 168.243C135.142 168.243 128.819 161.915 128.819 154.136C128.819 146.358 135.142 140.03 142.911 140.03C150.682 140.03 157.006 146.358 157.006 154.136ZM84.2699 76.1268C84.2699 68.3481 90.5932 62.0196 98.362 62.0196C106.131 62.0196 112.454 68.3481 112.454 76.1268C112.454 83.9056 106.131 90.234 98.362 90.234C90.5932 90.234 84.2699 83.9056 84.2699 76.1268ZM187.461 45.6583C179.692 45.6583 173.37 39.3293 173.37 31.5497C173.37 23.7709 179.693 17.4425 187.461 17.4425C195.231 17.4425 201.555 23.7703 201.555 31.5497C201.555 39.3284 195.231 45.6583 187.461 45.6583Z" fill="#2185D0" stroke="#2185D0" stroke-width="1.83761"/>
</svg>
